<svg viewBox="0 0 184 184" xmlns="http://www.w3.org/2000/svg">
  <style>
    path {
      fill: hsl(240, 8%, 20%);
    }

    @media (prefers-color-scheme: dark) {
      path {
        fill: white;
      }
    }
  </style>

  <path d="M83.78 72L52.49 24.16a4.33 4.33 0 017.25-4.74c.08.14.17.28.24.42l25.76 51a1.13 1.13 0 01-2 1.13z" class="cls-2" transform="translate(-7.71 -6.05)"/>
  <path d="M69.33 98.86l-57 3.19a4.33 4.33 0 11-.48-8.64h.48l57 3.19a1.13 1.13 0 010 2.26z" class="cls-2" transform="translate(-7.71 -6.05)"/>
  <path d="M85.39 124.81l-25.76 51a4.32 4.32 0 11-7.72-3.9 4.49 4.49 0 01.24-.42l31.29-47.81a1.13 1.13 0 012 1.13z" class="cls-2" transform="translate(-7.71 -6.05)"/>
  <path d="M115.9 123.88l31.29 47.81a4.33 4.33 0 01-7.24 4.74c-.09-.13-.17-.28-.25-.42l-25.76-51a1.13 1.13 0 012-1.13z" class="cls-2" transform="translate(-7.71 -6.05)"/>
  <path d="M130.35 97l57.05-3.2a4.33 4.33 0 01.48 8.65h-.48l-57.05-3.19a1.14 1.14 0 01-1.07-1.2 1.13 1.13 0 011.07-1.06z" class="cls-2" transform="translate(-7.71 -6.05)"/>
  <path d="M114.29 71l25.76-51a4.33 4.33 0 017.73 3.9 4.23 4.23 0 01-.25.42l-31.29 47.85a1.13 1.13 0 01-1.95-1.17z" class="cls-2" transform="translate(-7.71 -6.05)"/>

  <path d="M125.8 81.87l47.8-31.29a4.33 4.33 0 114.75 7.24l-.42.25-51 25.75a1.13 1.13 0 01-1.12-1.95z" class="cls-3" transform="translate(-7.71 -6.05)"/>
  <path d="M100.77 128.43l3.19 57a4.33 4.33 0 11-8.64.49 4 4 0 010-.49l3.19-57a1.13 1.13 0 012.26 0z" class="cls-3" transform="translate(-7.71 -6.05)"/>
  <path d="M99.1 67.67l-3.19-57a4.33 4.33 0 018.65-.48v.48l-3.2 57.05a1.12 1.12 0 01-1.19 1.07 1.14 1.14 0 01-1.07-1.12z" class="cls-3" transform="translate(-7.71 -6.05)"/>
  <path d="M73 83.48L22 57.72A4.33 4.33 0 1125.86 50l.42.24 47.81 31.28a1.14 1.14 0 01.32 1.57 1.12 1.12 0 01-1.41.39z" class="cls-3" transform="translate(-7.71 -6.05)"/>
  <path d="M126.73 112.38l51 25.76a4.33 4.33 0 11-3.91 7.72 3.38 3.38 0 01-.41-.24l-47.81-31.29a1.13 1.13 0 011.13-2z" class="cls-3" transform="translate(-7.71 -6.05)"/>
  <path d="M73.89 114l-47.81 31.28a4.33 4.33 0 11-4.74-7.28 3.38 3.38 0 01.41-.24l51-25.76a1.13 1.13 0 011.52.5 1.14 1.14 0 01-.38 1.5z" class="cls-3" transform="translate(-7.71 -6.05)"/>
</svg>
